<?xml version="1.0" encoding="utf-8"?>

<!-- Uploaded to: SVG Repo, www.svgrepo.com, Generator: SVG Repo Mixer Tools -->
<svg version="1.1" id="Icons" xmlns="http://www.w3.org/2000/svg" xmlns:xlink="http://www.w3.org/1999/xlink" 
	 viewBox="0 0 32 32" xml:space="preserve">
<style type="text/css">
	.st0{fill:none;stroke:#000000;stroke-width:2;stroke-linecap:round;stroke-linejoin:round;stroke-miterlimit:10;}
	.st1{fill:none;stroke:#000000;stroke-width:2;stroke-linejoin:round;stroke-miterlimit:10;}
</style>
<path class="st0" d="M25,6.7c-3.4,0-6.6-1.4-9-3.7c-2.4,2.3-5.6,3.7-9,3.7C5.6,6.7,4.3,6.4,3,6c0,14,5.5,19.6,13,23
	c7.5-3.4,13-9,13-23C27.7,6.4,26.4,6.7,25,6.7z"/>
<path class="st0" d="M21.8,14.6c-0.7,0.1-1.4-0.2-1.8-0.9c-0.4-0.7-0.3-1.5,0.1-2c-0.7-0.6-1.5-1.1-2.4-1.4
	c-0.3,0.7-0.9,1.1-1.7,1.1c-0.8,0-1.4-0.5-1.7-1.1c-0.9,0.3-1.7,0.8-2.4,1.4c0.4,0.6,0.5,1.4,0.1,2c-0.4,0.7-1.1,1-1.8,0.9
	C10.1,15.1,10,15.5,10,16c0,0.5,0.1,0.9,0.2,1.4c0.7-0.1,1.4,0.2,1.8,0.9c0.4,0.7,0.3,1.5-0.1,2c0.7,0.6,1.5,1.1,2.4,1.4
	c0.3-0.7,0.9-1.1,1.7-1.1c0.8,0,1.4,0.5,1.7,1.1c0.9-0.3,1.7-0.8,2.4-1.4c-0.4-0.6-0.5-1.4-0.1-2c0.4-0.7,1.1-1,1.8-0.9
	c0.1-0.4,0.2-0.9,0.2-1.4C22,15.5,21.9,15.1,21.8,14.6z"/>
<circle class="st0" cx="16" cy="16" r="1"/>
</svg>