<svg xmlns="http://www.w3.org/2000/svg" viewBox="0 0 800 400">
  <!-- Background -->
  <rect width="800" height="400" fill="#ffffff"/>
  
  <!-- Title -->
  <text x="400" y="30" text-anchor="middle" font-size="20" font-weight="bold">Dense vs Sparse Distributed Representations</text>
  
  <!-- Dense Embedding Section -->
  <text x="200" y="70" text-anchor="middle" font-size="16" font-weight="bold">Dense Embedding</text>
  <rect x="50" y="90" width="300" height="100" fill="#f0f0f0" stroke="#000000"/>
  
  <!-- Dense values -->
  <g font-size="12">
    <text x="70" y="120">0.42</text>
    <text x="120" y="120">-0.15</text>
    <text x="170" y="120">0.31</text>
    <text x="220" y="120">-0.22</text>
    <text x="270" y="120">0.18</text>
    
    <text x="70" y="150">-0.11</text>
    <text x="120" y="150">0.25</text>
    <text x="170" y="150">-0.33</text>
    <text x="220" y="150">0.45</text>
    <text x="270" y="150">-0.28</text>
  </g>
  
  <!-- SDR Section -->
  <text x="550" y="70" text-anchor="middle" font-size="16" font-weight="bold">Sparse Distributed Representation</text>
  
  <!-- SDR Grid Container -->
  <rect x="450" y="90" width="200" height="100" fill="#f0f0f0" stroke="#000000"/>
  
  <!-- Active SDR Cells -->
  <rect x="470" y="110" width="20" height="20" fill="#4a90e2"/>
  <rect x="530" y="130" width="20" height="20" fill="#4a90e2"/>
  <rect x="490" y="150" width="20" height="20" fill="#4a90e2"/>
  
  <!-- SDR Grid -->
  <g stroke="#cccccc" stroke-width="1">
    <!-- Vertical lines -->
    <line x1="470" y1="90" x2="470" y2="190"/>
    <line x1="490" y1="90" x2="490" y2="190"/>
    <line x1="510" y1="90" x2="510" y2="190"/>
    <line x1="530" y1="90" x2="530" y2="190"/>
    <line x1="550" y1="90" x2="550" y2="190"/>
    <line x1="570" y1="90" x2="570" y2="190"/>
    <line x1="590" y1="90" x2="590" y2="190"/>
    <line x1="610" y1="90" x2="610" y2="190"/>
    <line x1="630" y1="90" x2="630" y2="190"/>
    <line x1="650" y1="90" x2="650" y2="190"/>
    
    <!-- Horizontal lines -->
    <line x1="450" y1="110" x2="650" y2="110"/>
    <line x1="450" y1="130" x2="650" y2="130"/>
    <line x1="450" y1="150" x2="650" y2="150"/>
    <line x1="450" y1="170" x2="650" y2="170"/>
  </g>
  
  <!-- Arrows -->
  <path d="M 380 140 L 420 140" stroke="#000000" stroke-width="2" marker-end="url(#arrowhead)"/>
  
  <!-- Arrow marker -->
  <defs>
    <marker id="arrowhead" markerWidth="10" markerHeight="7" refX="9" refY="3.5" orient="auto">
      <polygon points="0 0, 10 3.5, 0 7" fill="#000000"/>
    </marker>
  </defs>
  
  <!-- Semantic Examples -->
  <text x="200" y="240" text-anchor="middle" font-size="16" font-weight="bold">SDR Activation Patterns</text>
  
  <!-- Mono-semantic pattern -->
  <text x="150" y="270" font-size="14">Mono-semantic</text>
  <rect x="50" y="280" width="200" height="100" fill="#f0f0f0" stroke="#000000"/>
  
  <!-- Mono-semantic Active Cells -->
  <rect x="90" y="310" width="20" height="20" fill="#4a90e2"/>
  <rect x="110" y="310" width="20" height="20" fill="#4a90e2"/>
  <rect x="90" y="330" width="20" height="20" fill="#4a90e2"/>
  
  <!-- Mono-semantic Grid -->
  <g stroke="#cccccc" stroke-width="1">
    <!-- Vertical lines -->
    <line x1="70" y1="280" x2="70" y2="380"/>
    <line x1="90" y1="280" x2="90" y2="380"/>
    <line x1="110" y1="280" x2="110" y2="380"/>
    <line x1="130" y1="280" x2="130" y2="380"/>
    <line x1="150" y1="280" x2="150" y2="380"/>
    <line x1="170" y1="280" x2="170" y2="380"/>
    <line x1="190" y1="280" x2="190" y2="380"/>
    <line x1="210" y1="280" x2="210" y2="380"/>
    <line x1="230" y1="280" x2="230" y2="380"/>
    
    <!-- Horizontal lines -->
    <line x1="50" y1="290" x2="250" y2="290"/>
    <line x1="50" y1="310" x2="250" y2="310"/>
    <line x1="50" y1="330" x2="250" y2="330"/>
    <line x1="50" y1="350" x2="250" y2="350"/>
    <line x1="50" y1="370" x2="250" y2="370"/>
  </g>
  
  <!-- Poly-semantic pattern -->
  <text x="400" y="270" font-size="14">Poly-semantic</text>
  <rect x="300" y="280" width="200" height="100" fill="#f0f0f0" stroke="#000000"/>
  
  <!-- Poly-semantic Active Cells -->
  <rect x="320" y="290" width="20" height="20" fill="#4a90e2"/>
  <rect x="340" y="330" width="20" height="20" fill="#4a90e2"/>
  <rect x="380" y="310" width="20" height="20" fill="#4a90e2"/>
  
  <!-- Poly-semantic Grid -->
  <g stroke="#cccccc" stroke-width="1">
    <!-- Vertical lines -->
    <line x1="320" y1="280" x2="320" y2="380"/>
    <line x1="340" y1="280" x2="340" y2="380"/>
    <line x1="360" y1="280" x2="360" y2="380"/>
    <line x1="380" y1="280" x2="380" y2="380"/>
    <line x1="400" y1="280" x2="400" y2="380"/>
    <line x1="420" y1="280" x2="420" y2="380"/>
    <line x1="440" y1="280" x2="440" y2="380"/>
    <line x1="460" y1="280" x2="460" y2="380"/>
    <line x1="480" y1="280" x2="480" y2="380"/>
    
    <!-- Horizontal lines -->
    <line x1="300" y1="290" x2="500" y2="290"/>
    <line x1="300" y1="310" x2="500" y2="310"/>
    <line x1="300" y1="330" x2="500" y2="330"/>
    <line x1="300" y1="350" x2="500" y2="350"/>
    <line x1="300" y1="370" x2="500" y2="370"/>
  </g>
  
  <!-- Novelty pattern -->
  <text x="650" y="270" font-size="14">Novelty (Outlier)</text>
  <rect x="550" y="280" width="200" height="100" fill="#f0f0f0" stroke="#000000"/>
  
  <!-- Novelty Active Cells -->
  <rect x="570" y="290" width="20" height="20" fill="#4a90e2"/>
  <rect x="650" y="350" width="20" height="20" fill="#4a90e2"/>
  <rect x="710" y="310" width="20" height="20" fill="#4a90e2"/>
  
  <!-- Novelty Grid -->
  <g stroke="#cccccc" stroke-width="1">
    <!-- Vertical lines -->
    <line x1="570" y1="280" x2="570" y2="380"/>
    <line x1="590" y1="280" x2="590" y2="380"/>
    <line x1="610" y1="280" x2="610" y2="380"/>
    <line x1="630" y1="280" x2="630" y2="380"/>
    <line x1="650" y1="280" x2="650" y2="380"/>
    <line x1="670" y1="280" x2="670" y2="380"/>
    <line x1="690" y1="280" x2="690" y2="380"/>
    <line x1="710" y1="280" x2="710" y2="380"/>
    <line x1="730" y1="280" x2="730" y2="380"/>
    
    <!-- Horizontal lines -->
    <line x1="550" y1="290" x2="750" y2="290"/>
    <line x1="550" y1="310" x2="750" y2="310"/>
    <line x1="550" y1="330" x2="750" y2="330"/>
    <line x1="550" y1="350" x2="750" y2="350"/>
    <line x1="550" y1="370" x2="750" y2="370"/>
  </g>
</svg>
